<svg width="400" height="250" xmlns="http://www.w3.org/2000/svg">
 <!-- Created with Method Draw - http://github.com/duopixel/Method-Draw/ -->
 <g>
  <title>background</title>
  <rect fill="#090a09" id="canvas_background" height="252" width="402" y="-1" x="-1"/>
 </g>
 <g>
  <title>Layer 1</title>
  <path transform="rotate(144.12, 121.268, 107.146)" id="svg_1" d="m74.880272,107.146706l0,0c0,-24.842918 20.768211,-44.981743 46.387169,-44.981743l0,0c12.302734,0 24.101517,4.738983 32.800522,13.174683c8.699554,8.435684 13.586578,19.877319 13.586578,31.80706l0,0c0,24.842827 -20.768402,44.981667 -46.3871,44.981667l0,0c-25.618958,0 -46.387169,-20.13884 -46.387169,-44.981667l0,0zm23.19355,0l0,0c0,12.421562 10.384102,22.49099 23.193619,22.49099c12.809525,0 23.193832,-10.069427 23.193832,-22.49099c0,-12.421364 -10.384308,-22.490913 -23.193832,-22.490913l0,0c-12.809517,0 -23.193619,10.06955 -23.193619,22.490913z" stroke-opacity="null" stroke-width="1.5" stroke="#000" fill="#7fff00"/>
  <path transform="rotate(4.95258, 246.773, 165.102)" id="svg_2" d="m199.271576,165.099945l0,0c0,-24.300262 21.266052,-44.000214 47.500092,-44.000214l0,0c12.597778,0 24.680511,4.635895 33.588409,12.887756c8.907257,8.251953 13.911438,19.442902 13.911438,31.112457l0,0c0,24.301056 -21.265808,43.999786 -47.499847,43.999786l0,0c-26.234039,0 -47.500092,-19.69873 -47.500092,-43.999786l0,0zm23.750031,0l0,0c0,12.150024 10.633911,21.999939 23.750061,21.999939c13.115997,0 23.750061,-9.849915 23.750061,-21.999939c0,-12.15036 -10.634064,-21.999664 -23.750061,-21.999664l0,0c-13.11615,0 -23.750061,9.849304 -23.750061,21.999664z" stroke-opacity="null" stroke-width="1.5" stroke="#000" fill="#7fff00"/>
  <path d="m157.5,20.450012c2,0 3,0 5,0c2,0 4,0 5,0c2,0 3,0 5,0c2,0 6,0 9,0c2,0 4,0 6,0c1,0 1.292892,0.292892 2,1c0.707108,0.707108 2,0 4,0c1,0 2,1 3,1c1,0 1.097885,0.824429 3,2c0.850647,0.525732 2.152237,-0.765368 4,0c1.306564,0.541197 2.693436,1.458803 4,2c0.923874,0.382683 3.012909,1.839817 4,2c3.121445,0.50654 4.386871,1.917608 7,3c1.847763,0.765366 2.878555,1.493458 6,2c0.987091,0.160183 1.823746,1.486256 4,2c0.973251,0.229752 4.372009,0.385098 8,3c1.147263,0.826904 3.925797,1.497555 9,2c1.990265,0.197075 3,2 4,2c1,0 1.61731,0.076122 2,1c0.541199,1.306564 2,2 4,3c2,1 3,2 5,3c2,1 3.186005,1.692547 5,3c1.147278,0.826904 1.821075,2.298691 5,4c1.763336,0.943714 2.149353,0.47427 3,1c1.9021,1.175571 3.186005,2.692547 5,4c2.294525,1.653809 3.824432,2.097885 5,4c0.525726,0.850655 0.418854,1.418861 2,3c1.581146,1.581139 2.418854,1.418861 4,3c1.581146,1.581139 2,3 4,5c1,1 1.346191,2.70546 3,5c1.307465,1.813995 3.710205,3.042908 4,4c1.04483,3.450844 4.493469,4.878555 5,8c0.160187,0.987091 0.824432,1.097885 2,3c0.525726,0.850655 1.486267,2.823746 2,5c0.229767,0.973251 1.458801,1.693436 2,3c0.765381,1.847755 0,3 1,4l1,1l0,1l1,0" id="svg_4" stroke-opacity="null" stroke-width="20" stroke="#000" fill="#7fff00"/>
  <ellipse opacity="0.05" ry="126.000001" rx="188.999985" id="svg_6" cy="121.450012" cx="198.500002" stroke-opacity="null" stroke-width="20" stroke="#000" fill="#888c85"/>
 </g>
</svg>